<svg width="141" height="59" viewBox="0 0 141 59" fill="none" xmlns="http://www.w3.org/2000/svg">
<g filter="url(#filter0_d_1_86)">
<path d="M34.7014 27.022L30.6949 17.8445L29.8213 17.2388L28.797 16.9127L27.4113 16.54L25.7846 17.2388L24.7001 17.8445L28.797 27.022H34.7014Z" fill="url(#paint0_linear_1_86)"/>
</g>
<g filter="url(#filter1_d_1_86)">
<path d="M20.3231 23.9535L24.3296 33.1525L25.2032 33.7595L26.2274 34.0864L27.6131 34.46L29.2399 33.7595L30.3243 33.1525L26.2274 23.9535H20.3231Z" fill="url(#paint1_linear_1_86)"/>
</g>
<path d="M24.4859 17.9646L18.2659 26.9553L24.4859 27.022L28.9822 17.9646C29.2979 17.038 30.2856 17.5785 30.74 17.9646C28.798 14.4065 25.7614 16.4821 24.4859 17.9646Z" fill="white"/>
<path d="M30.5141 33.0354L36.7341 24.0447L30.5141 23.978L26.0178 33.0354C25.7021 33.962 24.7144 33.4215 24.26 33.0354C26.202 36.5935 29.2386 34.5179 30.5141 33.0354Z" fill="white"/>
<path d="M45.2975 30.12C45.0525 30.12 44.8125 30.0925 44.5775 30.0375C44.3425 29.9825 44.13 29.885 43.94 29.745C43.755 29.6 43.6075 29.3975 43.4975 29.1375C43.3875 28.8725 43.3325 28.5325 43.3325 28.1175C43.3325 28.0125 43.3325 27.905 43.3325 27.795C43.3325 27.68 43.3325 27.56 43.3325 27.435V23.16H41.39V22.035H42.635C42.805 22.035 42.9375 22.03 43.0325 22.02C43.1275 22.005 43.195 21.9725 43.235 21.9225C43.28 21.8675 43.3075 21.785 43.3175 21.675C43.3275 21.56 43.3325 21.4025 43.3325 21.2025V19.395H44.615V22.035H47.105V23.16H44.615V27.0225C44.615 27.1325 44.615 27.24 44.615 27.345C44.615 27.45 44.615 27.5475 44.615 27.6375C44.615 28.0625 44.665 28.395 44.765 28.635C44.87 28.875 45.1025 28.995 45.4625 28.995C45.6075 28.995 45.745 28.9825 45.875 28.9575C46.005 28.9325 46.1025 28.9075 46.1675 28.8825V29.9925C46.0825 30.0225 45.9625 30.05 45.8075 30.075C45.6575 30.105 45.4875 30.12 45.2975 30.12ZM53.9968 30V27.0375C53.9968 26.8975 53.9968 26.7325 53.9968 26.5425C53.9968 26.3475 53.9968 26.1525 53.9968 25.9575C53.9968 25.7575 53.9968 25.5875 53.9968 25.4475C53.9968 24.6825 53.8318 24.105 53.5018 23.715C53.1768 23.325 52.6593 23.13 51.9493 23.13C51.4743 23.13 51.0568 23.2225 50.6968 23.4075C50.3418 23.5925 50.0643 23.845 49.8643 24.165C49.6643 24.485 49.5643 24.8475 49.5643 25.2525L48.7543 25.005C48.7543 24.435 48.9018 23.9175 49.1968 23.4525C49.4968 22.9825 49.9043 22.61 50.4193 22.335C50.9393 22.055 51.5268 21.915 52.1818 21.915C53.1368 21.915 53.8893 22.2025 54.4393 22.7775C54.9943 23.3525 55.2718 24.1475 55.2718 25.1625C55.2718 25.4275 55.2718 25.7325 55.2718 26.0775C55.2718 26.4225 55.2718 26.785 55.2718 27.165V30H53.9968ZM48.2893 30V18.2775H49.5643V30H48.2893ZM57.451 26.5275V25.3875H63.6085L63.3835 25.7625C63.3835 25.7325 63.3835 25.705 63.3835 25.68C63.3835 25.65 63.3835 25.6225 63.3835 25.5975C63.3835 25.1375 63.286 24.7175 63.091 24.3375C62.901 23.9525 62.616 23.645 62.236 23.415C61.856 23.185 61.386 23.07 60.826 23.07C60.261 23.07 59.7635 23.19 59.3335 23.43C58.9035 23.67 58.5685 24.01 58.3285 24.45C58.0885 24.885 57.9685 25.405 57.9685 26.01C57.9685 26.625 58.0835 27.155 58.3135 27.6C58.5485 28.045 58.881 28.3875 59.311 28.6275C59.741 28.8675 60.251 28.9875 60.841 28.9875C61.261 28.9875 61.626 28.945 61.936 28.86C62.246 28.77 62.501 28.6525 62.701 28.5075C62.906 28.3575 63.061 28.195 63.166 28.02C63.271 27.845 63.3335 27.67 63.3535 27.495H64.6285C64.6035 27.815 64.5035 28.1325 64.3285 28.4475C64.1535 28.7625 63.906 29.05 63.586 29.31C63.266 29.565 62.8735 29.77 62.4085 29.925C61.9435 30.08 61.4085 30.1575 60.8035 30.1575C60.0035 30.1575 59.2985 29.9825 58.6885 29.6325C58.0785 29.2825 57.5985 28.7975 57.2485 28.1775C56.9035 27.5575 56.731 26.845 56.731 26.04C56.731 25.225 56.906 24.51 57.256 23.895C57.606 23.275 58.0885 22.79 58.7035 22.44C59.3185 22.09 60.021 21.915 60.811 21.915C61.616 21.915 62.3135 22.09 62.9035 22.44C63.4935 22.79 63.9485 23.27 64.2685 23.88C64.5885 24.485 64.7485 25.175 64.7485 25.95C64.7485 26.03 64.746 26.135 64.741 26.265C64.736 26.395 64.7285 26.4825 64.7185 26.5275H57.451ZM72.4786 30L70.2511 22.035H71.3836L73.4911 29.4375H73.2586L74.6536 22.035H75.9811L74.2636 30H72.4786ZM67.0936 30L65.3611 22.035H66.6886L68.0986 29.4375H67.8661L69.9511 22.035H71.0836L68.8861 30H67.0936ZM79.7657 30.15C79.1607 30.15 78.6307 30.055 78.1757 29.865C77.7257 29.675 77.3757 29.4025 77.1257 29.0475C76.8757 28.6875 76.7507 28.2575 76.7507 27.7575C76.7507 27.2375 76.8857 26.805 77.1557 26.46C77.4257 26.11 77.8057 25.8375 78.2957 25.6425C78.7857 25.4475 79.3557 25.3175 80.0057 25.2525C80.9857 25.1525 81.6832 25.055 82.0982 24.96C82.5132 24.86 82.7207 24.7 82.7207 24.48C82.7207 24.475 82.7207 24.4725 82.7207 24.4725C82.7207 24.4675 82.7207 24.4625 82.7207 24.4575C82.7207 23.9975 82.5332 23.655 82.1582 23.43C81.7832 23.2 81.2407 23.085 80.5307 23.085C79.7907 23.085 79.2157 23.215 78.8057 23.475C78.3957 23.73 78.1907 24.145 78.1907 24.72H76.9307C76.9307 24.125 77.0832 23.62 77.3882 23.205C77.6932 22.785 78.1157 22.465 78.6557 22.245C79.2007 22.025 79.8282 21.915 80.5382 21.915C81.1882 21.915 81.7732 22.015 82.2932 22.215C82.8182 22.41 83.2332 22.7025 83.5382 23.0925C83.8482 23.4775 84.0032 23.955 84.0032 24.525C84.0032 24.63 84.0032 24.735 84.0032 24.84C84.0032 24.94 84.0032 25.0425 84.0032 25.1475V28.5C84.0032 28.675 84.0107 28.845 84.0257 29.01C84.0407 29.175 84.0657 29.32 84.1007 29.445C84.1457 29.595 84.1957 29.7175 84.2507 29.8125C84.3057 29.9025 84.3507 29.965 84.3857 30H83.1032C83.0782 29.975 83.0407 29.9175 82.9907 29.8275C82.9407 29.7325 82.8932 29.6225 82.8482 29.4975C82.8132 29.3975 82.7857 29.2725 82.7657 29.1225C82.7457 28.9675 82.7357 28.8075 82.7357 28.6425L82.9457 28.785C82.7907 29.055 82.5632 29.2925 82.2632 29.4975C81.9682 29.7025 81.6107 29.8625 81.1907 29.9775C80.7707 30.0925 80.2957 30.15 79.7657 30.15ZM79.9682 29.0025C80.4832 29.0025 80.9482 28.925 81.3632 28.77C81.7782 28.61 82.1082 28.375 82.3532 28.065C82.5982 27.755 82.7207 27.37 82.7207 26.91V25.3275L83.0057 25.8075C82.6857 25.9325 82.2857 26.035 81.8057 26.115C81.3307 26.19 80.8332 26.2525 80.3132 26.3025C79.5582 26.3725 78.9882 26.505 78.6032 26.7C78.2232 26.895 78.0332 27.2225 78.0332 27.6825C78.0332 28.1175 78.1907 28.4475 78.5057 28.6725C78.8207 28.8925 79.3082 29.0025 79.9682 29.0025ZM88.6041 30.12C88.3591 30.12 88.1191 30.0925 87.8841 30.0375C87.6491 29.9825 87.4366 29.885 87.2466 29.745C87.0616 29.6 86.9141 29.3975 86.8041 29.1375C86.6941 28.8725 86.6391 28.5325 86.6391 28.1175C86.6391 28.0125 86.6391 27.905 86.6391 27.795C86.6391 27.68 86.6391 27.56 86.6391 27.435V23.16H84.6966V22.035H85.9416C86.1116 22.035 86.2441 22.03 86.3391 22.02C86.4341 22.005 86.5016 21.9725 86.5416 21.9225C86.5866 21.8675 86.6141 21.785 86.6241 21.675C86.6341 21.56 86.6391 21.4025 86.6391 21.2025V19.395H87.9216V22.035H90.4116V23.16H87.9216V27.0225C87.9216 27.1325 87.9216 27.24 87.9216 27.345C87.9216 27.45 87.9216 27.5475 87.9216 27.6375C87.9216 28.0625 87.9716 28.395 88.0716 28.635C88.1766 28.875 88.4091 28.995 88.7691 28.995C88.9141 28.995 89.0516 28.9825 89.1816 28.9575C89.3116 28.9325 89.4091 28.9075 89.4741 28.8825V29.9925C89.3891 30.0225 89.2691 30.05 89.1141 30.075C88.9641 30.105 88.7941 30.12 88.6041 30.12ZM95.1123 30.15C94.3523 30.15 93.6623 29.985 93.0423 29.655C92.4223 29.32 91.9298 28.8425 91.5648 28.2225C91.2048 27.6025 91.0248 26.865 91.0248 26.01C91.0248 25.155 91.2048 24.4225 91.5648 23.8125C91.9298 23.1975 92.4223 22.7275 93.0423 22.4025C93.6623 22.0775 94.3523 21.915 95.1123 21.915C95.6923 21.915 96.2098 22.005 96.6648 22.185C97.1198 22.36 97.5048 22.595 97.8198 22.89C98.1348 23.185 98.3748 23.51 98.5398 23.865C98.7098 24.215 98.7948 24.565 98.7948 24.915C98.7948 24.92 98.7948 24.9275 98.7948 24.9375C98.7948 24.9475 98.7948 24.9575 98.7948 24.9675H97.5273C97.5273 24.9425 97.5248 24.915 97.5198 24.885C97.5148 24.85 97.5098 24.815 97.5048 24.78C97.4648 24.445 97.3373 24.1525 97.1223 23.9025C96.9073 23.6475 96.6273 23.4475 96.2823 23.3025C95.9373 23.1575 95.5448 23.085 95.1048 23.085C94.6098 23.085 94.1498 23.1925 93.7248 23.4075C93.3048 23.6175 92.9648 23.94 92.7048 24.375C92.4498 24.805 92.3223 25.35 92.3223 26.01C92.3223 26.665 92.4498 27.2125 92.7048 27.6525C92.9598 28.0925 93.2973 28.425 93.7173 28.65C94.1423 28.87 94.6048 28.98 95.1048 28.98C95.6448 28.98 96.0898 28.895 96.4398 28.725C96.7898 28.555 97.0523 28.33 97.2273 28.05C97.4073 27.765 97.5073 27.46 97.5273 27.135H98.7948C98.7948 27.495 98.7148 27.855 98.5548 28.215C98.3948 28.57 98.1598 28.895 97.8498 29.19C97.5398 29.48 97.1548 29.7125 96.6948 29.8875C96.2398 30.0625 95.7123 30.15 95.1123 30.15ZM106.038 30V27.0375C106.038 26.8975 106.038 26.7325 106.038 26.5425C106.038 26.3475 106.038 26.1525 106.038 25.9575C106.038 25.7575 106.038 25.5875 106.038 25.4475C106.038 24.6825 105.873 24.105 105.543 23.715C105.218 23.325 104.701 23.13 103.991 23.13C103.516 23.13 103.098 23.2225 102.738 23.4075C102.383 23.5925 102.106 23.845 101.906 24.165C101.706 24.485 101.606 24.8475 101.606 25.2525L100.796 25.005C100.796 24.435 100.943 23.9175 101.238 23.4525C101.538 22.9825 101.946 22.61 102.461 22.335C102.981 22.055 103.568 21.915 104.223 21.915C105.178 21.915 105.931 22.2025 106.481 22.7775C107.036 23.3525 107.313 24.1475 107.313 25.1625C107.313 25.4275 107.313 25.7325 107.313 26.0775C107.313 26.4225 107.313 26.785 107.313 27.165V30H106.038ZM100.331 30V18.2775H101.606V30H100.331ZM112.125 30.15C111.645 30.15 111.2 30.1 110.79 30C110.385 29.895 110.03 29.745 109.725 29.55C109.425 29.35 109.19 29.105 109.02 28.815C108.855 28.525 108.772 28.1925 108.772 27.8175C108.772 27.7775 108.772 27.7375 108.772 27.6975C108.772 27.6525 108.772 27.615 108.772 27.585H110.055C110.055 27.615 110.055 27.64 110.055 27.66C110.055 27.68 110.055 27.71 110.055 27.75C110.055 28.155 110.242 28.465 110.617 28.68C110.992 28.89 111.505 28.995 112.155 28.995C112.555 28.995 112.912 28.955 113.227 28.875C113.542 28.795 113.79 28.6725 113.97 28.5075C114.155 28.3425 114.247 28.135 114.247 27.885C114.247 27.47 114.052 27.175 113.662 27C113.277 26.82 112.7 26.665 111.93 26.535C111.525 26.465 111.14 26.375 110.775 26.265C110.41 26.15 110.085 26.0025 109.8 25.8225C109.52 25.6425 109.297 25.42 109.132 25.155C108.972 24.885 108.892 24.5625 108.892 24.1875C108.892 23.7025 109.035 23.2925 109.32 22.9575C109.61 22.6175 110 22.36 110.49 22.185C110.98 22.005 111.525 21.915 112.125 21.915C112.705 21.915 113.24 22.0075 113.73 22.1925C114.22 22.3775 114.612 22.6475 114.907 23.0025C115.207 23.3525 115.357 23.785 115.357 24.3C115.357 24.32 115.357 24.345 115.357 24.375C115.357 24.4 115.357 24.425 115.357 24.45H114.082C114.082 24.425 114.082 24.405 114.082 24.39C114.082 24.375 114.082 24.3575 114.082 24.3375C114.082 24.0475 113.99 23.81 113.805 23.625C113.62 23.435 113.38 23.295 113.085 23.205C112.79 23.11 112.475 23.0625 112.14 23.0625C111.825 23.0625 111.515 23.0975 111.21 23.1675C110.905 23.2325 110.652 23.3425 110.452 23.4975C110.252 23.6525 110.152 23.865 110.152 24.135C110.152 24.405 110.245 24.6225 110.43 24.7875C110.62 24.9475 110.885 25.08 111.225 25.185C111.57 25.285 111.975 25.3775 112.44 25.4625C112.855 25.5375 113.247 25.6325 113.617 25.7475C113.987 25.8575 114.312 26 114.592 26.175C114.877 26.35 115.1 26.5725 115.26 26.8425C115.425 27.1075 115.507 27.4325 115.507 27.8175C115.507 28.2075 115.417 28.5475 115.237 28.8375C115.062 29.1275 114.817 29.37 114.502 29.565C114.192 29.76 113.832 29.905 113.422 30C113.017 30.1 112.585 30.15 112.125 30.15ZM117.038 33.2775V22.035H118.313V33.2775H117.038ZM120.93 30.15C120.315 30.15 119.74 30 119.205 29.7C118.67 29.395 118.235 28.9775 117.9 28.4475C117.57 27.9175 117.405 27.3125 117.405 26.6325C117.405 26.6175 117.405 26.605 117.405 26.595C117.405 26.585 117.405 26.5725 117.405 26.5575L118.32 26.535C118.32 26.545 118.32 26.5575 118.32 26.5725C118.32 26.5825 118.32 26.5925 118.32 26.6025C118.32 27.0325 118.433 27.425 118.658 27.78C118.888 28.135 119.188 28.4175 119.558 28.6275C119.928 28.8375 120.325 28.9425 120.75 28.9425C121.455 28.9425 122.04 28.7025 122.505 28.2225C122.975 27.7375 123.21 27 123.21 26.01C123.21 25.015 122.978 24.28 122.513 23.805C122.048 23.325 121.46 23.085 120.75 23.085C120.325 23.085 119.928 23.19 119.558 23.4C119.188 23.605 118.888 23.8825 118.658 24.2325C118.433 24.5825 118.32 24.975 118.32 25.41L117.405 25.38C117.405 24.695 117.57 24.0925 117.9 23.5725C118.235 23.0525 118.67 22.6475 119.205 22.3575C119.74 22.0625 120.315 21.915 120.93 21.915C121.575 21.915 122.17 22.075 122.715 22.395C123.26 22.71 123.698 23.1725 124.028 23.7825C124.358 24.3925 124.523 25.135 124.523 26.01C124.523 26.9 124.36 27.655 124.035 28.275C123.71 28.89 123.275 29.3575 122.73 29.6775C122.185 29.9925 121.585 30.15 120.93 30.15ZM129.838 30.1425C129.038 30.1425 128.33 29.965 127.715 29.61C127.105 29.25 126.625 28.76 126.275 28.14C125.93 27.515 125.758 26.805 125.758 26.01C125.758 25.215 125.93 24.51 126.275 23.895C126.625 23.28 127.105 22.7975 127.715 22.4475C128.33 22.0975 129.038 21.9225 129.838 21.9225C130.638 21.9225 131.343 22.0975 131.953 22.4475C132.568 22.7975 133.048 23.28 133.393 23.895C133.743 24.51 133.918 25.215 133.918 26.01C133.918 26.805 133.743 27.515 133.393 28.14C133.048 28.76 132.568 29.25 131.953 29.61C131.343 29.965 130.638 30.1425 129.838 30.1425ZM129.838 28.9725C130.388 28.9725 130.873 28.85 131.293 28.605C131.713 28.36 132.04 28.015 132.275 27.57C132.515 27.125 132.635 26.605 132.635 26.01C132.635 25.415 132.515 24.9 132.275 24.465C132.04 24.025 131.713 23.6875 131.293 23.4525C130.873 23.2125 130.388 23.0925 129.838 23.0925C129.293 23.0925 128.808 23.2125 128.383 23.4525C127.963 23.6875 127.633 24.025 127.393 24.465C127.158 24.9 127.04 25.415 127.04 26.01C127.04 26.605 127.158 27.125 127.393 27.57C127.633 28.015 127.963 28.36 128.383 28.605C128.808 28.85 129.293 28.9725 129.838 28.9725ZM138.448 30.12C138.203 30.12 137.963 30.0925 137.728 30.0375C137.493 29.9825 137.281 29.885 137.091 29.745C136.906 29.6 136.758 29.3975 136.648 29.1375C136.538 28.8725 136.483 28.5325 136.483 28.1175C136.483 28.0125 136.483 27.905 136.483 27.795C136.483 27.68 136.483 27.56 136.483 27.435V23.16H134.541V22.035H135.786C135.956 22.035 136.088 22.03 136.183 22.02C136.278 22.005 136.346 21.9725 136.386 21.9225C136.431 21.8675 136.458 21.785 136.468 21.675C136.478 21.56 136.483 21.4025 136.483 21.2025V19.395H137.766V22.035H140.256V23.16H137.766V27.0225C137.766 27.1325 137.766 27.24 137.766 27.345C137.766 27.45 137.766 27.5475 137.766 27.6375C137.766 28.0625 137.816 28.395 137.916 28.635C138.021 28.875 138.253 28.995 138.613 28.995C138.758 28.995 138.896 28.9825 139.026 28.9575C139.156 28.9325 139.253 28.9075 139.318 28.8825V29.9925C139.233 30.0225 139.113 30.05 138.958 30.075C138.808 30.105 138.638 30.12 138.448 30.12Z" fill="white"/>
<defs>
<filter id="filter0_d_1_86" x="4.70013" y="0.540039" width="50.0013" height="50.4819" filterUnits="userSpaceOnUse" color-interpolation-filters="sRGB">
<feFlood flood-opacity="0" result="BackgroundImageFix"/>
<feColorMatrix in="SourceAlpha" type="matrix" values="0 0 0 0 0 0 0 0 0 0 0 0 0 0 0 0 0 0 127 0" result="hardAlpha"/>
<feOffset dy="4"/>
<feGaussianBlur stdDeviation="10"/>
<feComposite in2="hardAlpha" operator="out"/>
<feColorMatrix type="matrix" values="0 0 0 0 0 0 0 0 0 0 0 0 0 0 0 0 0 0 0.25 0"/>
<feBlend mode="normal" in2="BackgroundImageFix" result="effect1_dropShadow_1_86"/>
<feBlend mode="normal" in="SourceGraphic" in2="effect1_dropShadow_1_86" result="shape"/>
</filter>
<filter id="filter1_d_1_86" x="0.323059" y="7.95361" width="50.0013" height="50.5063" filterUnits="userSpaceOnUse" color-interpolation-filters="sRGB">
<feFlood flood-opacity="0" result="BackgroundImageFix"/>
<feColorMatrix in="SourceAlpha" type="matrix" values="0 0 0 0 0 0 0 0 0 0 0 0 0 0 0 0 0 0 127 0" result="hardAlpha"/>
<feOffset dy="4"/>
<feGaussianBlur stdDeviation="10"/>
<feComposite in2="hardAlpha" operator="out"/>
<feColorMatrix type="matrix" values="0 0 0 0 0 0 0 0 0 0 0 0 0 0 0 0 0 0 0.25 0"/>
<feBlend mode="normal" in2="BackgroundImageFix" result="effect1_dropShadow_1_86"/>
<feBlend mode="normal" in="SourceGraphic" in2="effect1_dropShadow_1_86" result="shape"/>
</filter>
<linearGradient id="paint0_linear_1_86" x1="33.6653" y1="27.022" x2="28.9137" y2="18.1327" gradientUnits="userSpaceOnUse">
<stop/>
<stop offset="0.494792" stop-color="white"/>
<stop offset="1" stop-color="white"/>
</linearGradient>
<linearGradient id="paint1_linear_1_86" x1="21.3592" y1="23.9535" x2="26.1281" y2="32.8543" gradientUnits="userSpaceOnUse">
<stop stop-color="#0C0C0C"/>
<stop offset="0.494792" stop-color="white"/>
<stop offset="1" stop-color="white"/>
</linearGradient>
</defs>
</svg>
